<svg width="1em" height="1em" viewBox="0 0 48 48" xmlns="http://www.w3.org/2000/svg"
     xmlns:xlink="http://www.w3.org/1999/xlink" class="antd-mobile-icon" style="vertical-align: -0.125em;">
    <g id="MinusCircleOutline-MinusCircleOutline" stroke="none" stroke-width="1" fill="none" fill-rule="evenodd">
        <g id="MinusCircleOutline-编组">
            <rect id="MinusCircleOutline-矩形" fill="#FFFFFF" opacity="0" x="0" y="0" width="48" height="48">
            </rect>
            <path d="M24,2 C36.1502645,2 46,11.8497355 46,24 C46,36.1502645 36.1502645,46 24,46 C11.8497355,46 2,36.1502645 2,24 C2,11.8497355 11.8497355,2 24,2 Z M24,5 C13.5065898,5 5,13.5065898 5,24 C5,34.4934102 13.5065898,43 24,43 C34.4934102,43 43,34.4934102 43,24 C43,13.5065898 34.4934102,5 24,5 Z M33.5,22.9 L33.5,25.1 C33.5,25.3209139 33.3209139,25.5 33.1,25.5 L14.9,25.5 C14.6790861,25.5 14.5,25.3209139 14.5,25.1 L14.5,22.9 C14.5,22.6790861 14.6790861,22.5 14.9,22.5 L33.1,22.5 C33.3209139,22.5 33.5,22.6790861 33.5,22.9 Z"
                  id="MinusCircleOutline-形状" fill="currentColor" fill-rule="nonzero">
            </path>
        </g>
    </g>
</svg>
        